:FULLY-SPECIFIED
:DEGREES
830
root 0.00607239 15.7939 -2.29564 2003.68 -81.68 -2000.2
lowerback 5.51705 3.27704 -7.51884
upperback -2.34232 3.69105 -1.18616
thorax -5.96369 2.06405 2.56081
lowerneck -18.828 -0.435004 1.17319
upperneck 23.5843 -0.986875 -0.777222
head 10.6956 -0.526852 -0.636303
rclavicle 7.95139e-016 -8.34896e-015
rhumerus -23.6439 -3.9885 -91.5818
rradius 31.7834
rwrist -1.58111
rhand -33.3445 -16.7194
rfingers 7.12502
rthumb -6.54683 -46.5982
lclavicle 7.95139e-016 -8.34896e-015
lhumerus -32.8549 5.70142 87.6474
lradius 15.6822
lwrist -5.52622
lhand -31.9316 15.2113
lfingers 7.12502
lthumb -5.18267 45.128
rfemur -7.98986 -0.31285 14.4422
rtibia 53.4466
rfoot 4.85206 -9.67253
rtoes -25.4612
lfemur -17.5516 -3.07318 -26.0254
ltibia 21.9865
lfoot -6.65484 9.86648
ltoes -5.81687
831
root 0.0138624 15.7933 -2.2734 2005.59 -81.4094 -2002.45
lowerback 5.82426 3.18688 -7.91028
upperback -2.29179 3.50459 -1.26004
thorax -6.0892 1.98562 2.70814
lowerneck -18.6187 -0.26861 1.24077
upperneck 23.5833 -0.742725 -0.900123
head 10.6571 -0.426805 -0.655574
rclavicle -4.13472e-014 2.26615e-014
rhumerus -24.2212 -5.05005 -91.3288
rradius 30.2485
rwrist 0.00639156
rhand -33.1003 -16.549
rfingers 7.12502
rthumb -6.31103 -46.435
lclavicle -4.13472e-014 2.26615e-014
lhumerus -32.3723 5.12903 87.8116
lradius 16.236
lwrist -4.55135
lhand -32.0734 15.256
lfingers 7.12502
lthumb -5.31959 45.1692
rfemur -9.49987 -0.718398 13.879
rtibia 56.111
rfoot 3.1752 -11.8157
rtoes -23.9885
lfemur -16.3695 -2.72557 -26.6925
ltibia 21.4562
lfoot -6.91511 9.62332
ltoes -5.40713
832
root 0.0268974 15.7876 -2.25068 2006.85 -81.1883 -2003.87
lowerback 6.01941 3.11875 -8.1434
upperback -2.23999 3.37201 -1.31449
thorax -6.14379 1.92696 2.7886
lowerneck -18.5906 -0.152553 1.27285
upperneck 23.6179 -0.561165 -1.01144
head 10.6662 -0.355764 -0.674984
rclavicle -3.02153e-014 3.10104e-014
rhumerus -24.6944 -6.03044 -91.0604
rradius 28.8834
rwrist 0.682949
rhand -33.3687 -16.9837
rfingers 7.12502
rthumb -6.57018 -46.8618
lclavicle -3.02153e-014 3.10104e-014
lhumerus -31.7547 4.2803 88.1161
lradius 16.8207
lwrist -3.39443
lhand -32.2054 15.3611
lfingers 7.12502
lthumb -5.44709 45.2711
rfemur -11.2086 -1.09858 13.4687
rtibia 58.4112
rfoot 1.57721 -13.4964
rtoes -21.5687
lfemur -15.33 -2.50668 -27.2232
ltibia 20.9809
lfoot -7.3433 9.52001
ltoes -5.24475
833
root 0.0362744 15.7928 -2.22916 2007.59 -81.1515 -2004.74
lowerback 6.17059 2.99613 -8.21612
upperback -2.2043 3.18871 -1.31066
thorax -6.17634 1.83948 2.85041
lowerneck -18.5946 -0.0406942 1.30513
upperneck 23.6989 -0.371457 -1.17997
head 10.6988 -0.288535 -0.714402
rclavicle -6.81086e-014 1.07344e-014
rhumerus -25.1855 -7.02093 -90.6783
rradius 27.4456
rwrist 1.37667
rhand -33.3991 -16.7036
rfingers 7.12502
rthumb -6.59953 -46.5807
lclavicle -6.81086e-014 1.07344e-014
lhumerus -31.1613 3.60482 88.3275
lradius 17.403
lwrist -2.5718
lhand -32.2631 15.5192
lfingers 7.12502
lthumb -5.50276 45.4277
rfemur -12.7725 -1.43386 13.2924
rtibia 60.1872
rfoot 0.284301 -14.8817
rtoes -18.7871
lfemur -14.4245 -2.56155 -27.5824
ltibia 20.6014
lfoot -7.55715 9.56477
ltoes -5.63231
834
root 0.0473333 15.7951 -2.20677 2008.08 -81.2863 -2005.36
lowerback 6.31199 2.83781 -8.11853
upperback -2.14045 2.97742 -1.29031
thorax -6.15963 1.73061 2.84097
lowerneck -18.5395 0.0631196 1.31646
upperneck 23.6741 -0.201612 -1.28068
head 10.6814 -0.222937 -0.727574
rclavicle 8.69683e-016 -5.96354e-015
rhumerus -25.6968 -8.146 -90.1826
rradius 26.0344
rwrist 2.49135
rhand -33.5758 -16.6426
rfingers 7.12502
rthumb -6.77012 -46.5144
lclavicle 8.69683e-016 -5.96354e-015
lhumerus -30.5185 2.91846 88.4983
lradius 17.9811
lwrist -1.81224
lhand -32.4517 15.0967
lfingers 7.12502
lthumb -5.68482 45.0004
rfemur -14.1564 -1.81329 13.2644
rtibia 61.5802
rfoot -1.08375 -16.0734
rtoes -16.9678
lfemur -13.5188 -2.7856 -27.8193
ltibia 20.2623
lfoot -7.92421 9.65321
ltoes -5.46215
835
root 0.0562895 15.7979 -2.17942 2008.55 -81.478 -2005.97
lowerback 6.41992 2.63379 -7.95075
upperback -2.0561 2.71912 -1.2367
thorax -6.0947 1.59533 2.83597
lowerneck -18.5 0.196672 1.35418
upperneck 23.6597 0.0194308 -1.44761
head 10.6719 -0.139882 -0.761783
rclavicle 2.46493e-014 7.95139e-016
rhumerus -26.1188 -9.35005 -89.5408
rradius 24.5243
rwrist 3.9227
rhand -33.4884 -16.5909
rfingers 7.12502
rthumb -6.68568 -46.4654
lclavicle 2.46493e-014 7.95139e-016
lhumerus -29.8547 2.15779 88.7421
lradius 18.5936
lwrist -0.944449
lhand -32.6036 15.1791
lfingers 7.12502
lthumb -5.83146 45.0788
rfemur -15.3835 -2.187 13.2384
rtibia 62.5798
rfoot -2.40963 -16.9637
rtoes -15.5932
lfemur -12.6467 -3.05106 -28.0568
ltibia 20.0064
lfoot -8.22624 9.71954
ltoes -5.49585
836
root 0.0642458 15.8061 -2.16447 2007.73 -81.3765 -2005.12
lowerback 6.34145 2.58456 -7.89269
upperback -2.03612 2.67433 -1.15152
thorax -6.02426 1.57137 2.90279
lowerneck -18.4908 0.273754 1.35353
upperneck 23.7066 0.161828 -1.58019
head 10.6898 -0.0925592 -0.78927
rclavicle -2.25621e-014 -8.15017e-015
rhumerus -26.7038 -10.7112 -88.7461
rradius 23.097
rwrist 5.59968
rhand -33.4656 -16.5269
rfingers 7.12502
rthumb -6.66374 -46.402
lclavicle -2.25621e-014 -8.15017e-015
lhumerus -29.2232 1.5029 88.9123
lradius 19.2181
lwrist -0.198732
lhand -32.7009 15.1685
lfingers 7.12502
lthumb -5.92547 45.0657
rfemur -16.7749 -1.99315 13.4423
rtibia 63.2785
rfoot -3.8375 -17.9132
rtoes -14.6068
lfemur -12.0143 -2.9537 -28.1572
ltibia 19.8485
lfoot -8.67039 9.71118
ltoes -5.11002
837
root 0.0757218 15.806 -2.14677 2007.78 -81.4427 -2005.2
lowerback 6.34597 2.45034 -7.87437
upperback -2.00521 2.50505 -1.06312
thorax -5.9777 1.48799 3.00775
lowerneck -18.4362 0.383346 1.416
upperneck 23.7049 0.338079 -1.73684
head 10.6821 -0.0266463 -0.830604
rclavicle -1.92821e-014 -4.79071e-014
rhumerus -27.2533 -12.3862 -87.7354
rradius 21.6079
rwrist 7.70407
rhand -33.2018 -16.2738
rfingers 7.12502
rthumb -6.40904 -46.1569
lclavicle -1.92821e-014 -4.79071e-014
lhumerus -28.589 1.04988 89.0053
lradius 19.7536
lwrist 0.110269
lhand -32.9557 15.0678
lfingers 7.12502
lthumb -6.17146 44.9579
rfemur -18.0057 -2.02311 13.5666
rtibia 63.7192
rfoot -5.22741 -18.4354
rtoes -14.0179
lfemur -11.405 -3.0709 -28.3223
ltibia 19.7977
lfoot -9.15079 9.8124
ltoes -4.91673
838
root 0.0909194 15.7994 -2.12938 2007.82 -81.5097 -2005.29
lowerback 6.41549 2.34602 -7.8107
upperback -1.96572 2.37166 -1.00399
thorax -5.95937 1.42038 3.04989
lowerneck -18.4172 0.4532 1.4552
upperneck 23.6949 0.449707 -1.83232
head 10.6772 0.0157333 -0.855328
rclavicle -1.78906e-015 -3.97569e-015
rhumerus -27.912 -13.878 -86.7104
rradius 20.3478
rwrist 9.43279
rhand -33.004 -16.1945
rfingers 7.12502
rthumb -6.21804 -46.0833
lclavicle -1.78906e-015 -3.97569e-015
lhumerus -27.9444 0.352439 89.138
lradius 20.3567
lwrist 0.785639
lhand -33.1837 15.0074
lfingers 7.12502
lthumb -6.39157 44.8909
rfemur -19.1987 -1.9417 13.7064
rtibia 63.9608
rfoot -6.54658 -18.6011
rtoes -13.6803
lfemur -10.8028 -3.06066 -28.5009
ltibia 19.8239
lfoot -9.61932 9.8117
ltoes -5.50206
839
root 0.106418 15.7899 -2.11723 2007.61 -81.5782 -2005.14
lowerback 6.47108 2.25224 -7.78586
upperback -1.91406 2.25356 -0.907892
thorax -5.92531 1.36188 3.15138
lowerneck -18.3771 0.500435 1.38894
upperneck 23.6765 0.534027 -1.82518
head 10.6642 0.048882 -0.829282
rclavicle 1.70955e-014 -1.59028e-014
rhumerus -28.6465 -15.6792 -85.468
rradius 19.2251
rwrist 11.4927
rhand -32.7576 -16.2242
rfingers 7.12502
rthumb -5.9802 -46.1198
lclavicle 1.70955e-014 -1.59028e-014
lhumerus -27.3191 -0.287039 89.251
lradius 20.991
lwrist 1.30114
lhand -33.346 14.9957
lfingers 7.12502
lthumb -6.54826 44.8745
rfemur -20.309 -1.77333 13.9547
rtibia 63.9774
rfoot -7.70713 -18.6921
rtoes -14.1996
lfemur -10.2074 -3.13976 -28.6189
ltibia 19.9019
lfoot -10.1109 9.91651
ltoes -5.63358
840
root 0.125324 15.7753 -2.10466 2008.26 -81.5208 -2005.85
lowerback 6.58754 2.20433 -7.89934
upperback -1.91208 2.1701 -0.880311
thorax -5.98658 1.32733 3.25045
lowerneck -18.3763 0.523729 1.33478
upperneck 23.7309 0.576071 -1.80557
head 10.6847 0.0644407 -0.807648
rclavicle -2.98177e-014 3.45885e-014
rhumerus -29.5482 -18.0849 -83.8232
rradius 18.0805
rwrist 14.2165
rhand -32.2636 -15.7607
rfingers 7.12502
rthumb -5.50322 -45.6692
lclavicle -2.98177e-014 3.45885e-014
lhumerus -26.7581 -0.872054 89.3112
lradius 21.6765
lwrist 1.64631
lhand -33.4437 15.1385
lfingers 7.12502
lthumb -6.64254 45.0144
rfemur -21.4364 -1.51577 13.9995
rtibia 63.8282
rfoot -8.85965 -18.7742
rtoes -13.9016
lfemur -9.66781 -3.20071 -28.9337
ltibia 20.0331
lfoot -10.5042 10.101
ltoes -6.57977
841
root 0.141396 15.759 -2.09756 2009.71 -81.6374 -2007.48
lowerback 6.8022 2.08279 -8.12616
upperback -1.86707 1.97227 -0.823342
thorax -6.04994 1.24029 3.45696
lowerneck -18.3643 0.558383 1.30098
upperneck 23.7856 0.635394 -1.81487
head 10.7036 0.0859673 -0.797336
rclavicle -2.22639e-014 8.54774e-015
rhumerus -30.487 -19.5441 -82.4798
rradius 17.3159
rwrist 15.801
rhand -31.9241 -16.1466
rfingers 7.12502
rthumb -5.17542 -46.0634
lclavicle -2.22639e-014 8.54774e-015
lhumerus -26.2215 -1.59028 89.4322
lradius 22.3608
lwrist 2.46021
lhand -33.6213 15.0569
lfingers 7.12502
lthumb -6.81399 44.9273
rfemur -22.2736 -1.49644 14.025
rtibia 63.4232
rfoot -10.0526 -18.935
rtoes -13.9023
lfemur -9.04301 -3.0612 -29.2387
ltibia 20.2328
lfoot -11.0472 9.83728
ltoes -6.59807
842
root 0.160479 15.7415 -2.09023 2010.78 -81.6178 -2008.61
lowerback 6.90324 2.00563 -8.3695
upperback -1.84238 1.84196 -0.761134
thorax -6.07761 1.18669 3.67316
lowerneck -18.3783 0.605721 1.2503
upperneck 23.8385 0.714909 -1.81159
head 10.727 0.116879 -0.77668
rclavicle -2.66371e-014 -2.78299e-015
rhumerus -31.4767 -21.3028 -80.9015
rradius 16.5618
rwrist 17.5243
rhand -31.6212 -16.2487
rfingers 7.12502
rthumb -4.88298 -46.1724
lclavicle -2.66371e-014 -2.78299e-015
lhumerus -25.7159 -2.13217 89.5056
lradius 23.1754
lwrist 3.10245
lhand -33.7953 14.9815
lfingers 7.12502
lthumb -6.98201 44.8464
rfemur -23.2394 -1.37527 14.07
rtibia 62.8451
rfoot -11.2015 -19.22
rtoes -13.2555
lfemur -8.60455 -2.98764 -29.5504
ltibia 20.5298
lfoot -11.6111 9.81616
ltoes -6.89603
843
root 0.179738 15.7219 -2.08533 2011.62 -81.6615 -2009.53
lowerback 7.05964 1.92817 -8.51876
upperback -1.83445 1.71181 -0.718229
thorax -6.14915 1.13148 3.81521
lowerneck -18.3856 0.637721 1.25031
upperneck 23.8929 0.75622 -1.8044
head 10.7492 0.135494 -0.768657
rclavicle -3.97569e-016 1.15295e-014
rhumerus -32.5354 -22.9923 -79.2777
rradius 15.8518
rwrist 19.2865
rhand -31.2624 -16.471
rfingers 7.12502
rthumb -4.53652 -46.4025
lclavicle -3.97569e-016 1.15295e-014
lhumerus -25.271 -2.72911 89.4862
lradius 24.0503
lwrist 3.45329
lhand -33.649 15.3496
lfingers 7.12502
lthumb -6.84078 45.2191
rfemur -24.0796 -1.32836 14.2218
rtibia 62.0278
rfoot -12.3331 -19.7088
rtoes -14.0229
lfemur -8.1845 -2.93017 -29.7763
ltibia 20.9107
lfoot -12.1949 9.75006
ltoes -6.9787
